<svg id="visual" viewBox="0 0 900 600" width="900" height="600" xmlns="http://www.w3.org/2000/svg" xmlns:xlink="http://www.w3.org/1999/xlink" version="1.1"><rect x="0" y="0" width="900" height="600" fill="#ef9e9e"></rect><defs><linearGradient id="grad1_0" x1="33.3%" y1="0%" x2="100%" y2="100%"><stop offset="20%" stop-color="#ef9e9e" stop-opacity="1"></stop><stop offset="80%" stop-color="#ef9e9e" stop-opacity="1"></stop></linearGradient></defs><defs><linearGradient id="grad2_0" x1="0%" y1="0%" x2="66.7%" y2="100%"><stop offset="20%" stop-color="#ef9e9e" stop-opacity="1"></stop><stop offset="80%" stop-color="#ef9e9e" stop-opacity="1"></stop></linearGradient></defs><g transform="translate(900, 0)"><path d="M0 324.5C-39.6 308.7 -79.1 292.9 -113.7 274.4C-148.2 255.9 -177.7 234.7 -210.7 210.7C-243.7 186.7 -280.3 159.8 -299.8 124.2C-319.3 88.6 -321.9 44.3 -324.5 0L0 0Z" fill="#c9646a"></path></g><g transform="translate(0, 600)"><path d="M0 -324.5C40.4 -314.8 80.8 -305.2 120.5 -291C160.3 -276.9 199.4 -258.2 229.5 -229.5C259.5 -200.7 280.4 -162 294.7 -122.1C309 -82.2 316.8 -41.1 324.5 0L0 0Z" fill="#c9646a"></path></g></svg>